<svg width="48" height="48" viewBox="0 0 48 48" fill="none" xmlns="http://www.w3.org/2000/svg">
<path opacity="0.4" d="M42.0958 27.6239L40.9598 28.7679L40.3918 29.3359C40.1701 29.5605 39.9061 29.7388 39.6149 29.8605C39.3238 29.9822 39.0114 30.0449 38.6958 30.0449C38.3803 30.0449 38.0679 29.9822 37.7767 29.8605C37.4856 29.7388 37.2215 29.5605 36.9998 29.3359C37.236 29.575 37.4199 29.8607 37.5397 30.1747C37.6595 30.4887 37.7127 30.8243 37.6958 31.1599C37.6715 31.7567 37.423 32.3224 36.9998 32.7439L36.4398 33.3119C35.9898 33.7614 35.3798 34.0138 34.7438 34.0138C34.1078 34.0138 33.4978 33.7614 33.0478 33.3119C33.2718 33.5356 33.4495 33.8012 33.5708 34.0936C33.692 34.386 33.7544 34.6994 33.7544 35.0159C33.7544 35.3325 33.692 35.6459 33.5708 35.9383C33.4495 36.2307 33.2718 36.4963 33.0478 36.7199L32.4798 37.2879C32.0298 37.7374 31.4198 37.9898 30.7838 37.9898C30.1478 37.9898 29.5378 37.7374 29.0878 37.2879L27.1998 38.3999L12.7998 31.1999L9.87183 31.6079L5.03183 26.7519C-0.352173 21.3439 -0.520173 12.3199 4.96783 7.01594C7.52701 4.53783 10.9594 3.16761 14.5216 3.20205C18.0838 3.23649 21.489 4.67281 23.9998 7.19994L42.0958 25.3679C42.3919 25.6687 42.5578 26.0739 42.5578 26.4959C42.5578 26.918 42.3919 27.3231 42.0958 27.6239Z" fill="#7DFFAF"/>
<path d="M43.2159 26.496L40.9599 28.768C41.4096 28.3149 41.6619 27.7024 41.6619 27.064C41.6619 26.4256 41.4096 25.8132 40.9599 25.36L28.5199 12.872C28.3719 12.7237 28.1961 12.606 28.0025 12.5257C27.809 12.4454 27.6015 12.4041 27.3919 12.4041C27.1824 12.4041 26.9749 12.4454 26.7813 12.5257C26.5878 12.606 26.4119 12.7237 26.2639 12.872L20.0399 19.12C19.6701 19.4927 19.2302 19.7885 18.7455 19.9904C18.2608 20.1922 17.741 20.2962 17.2159 20.2962C16.6909 20.2962 16.171 20.1922 15.6864 19.9904C15.2017 19.7885 14.7617 19.4927 14.3919 19.12C14.0919 18.8177 13.9225 18.4099 13.9199 17.984C13.9198 17.7729 13.9614 17.5638 14.0424 17.3688C14.1234 17.1739 14.2422 16.9969 14.3919 16.848L23.9999 7.20002C25.2581 5.93189 26.7548 4.92537 28.4038 4.2385C30.0529 3.55163 31.8216 3.198 33.6079 3.198C35.3943 3.198 37.163 3.55163 38.812 4.2385C40.461 4.92537 41.9578 5.93189 43.2159 7.20002C45.7674 9.76271 47.1999 13.2317 47.1999 16.848C47.1999 20.4643 45.7674 23.9333 43.2159 26.496Z" fill="#7DFFAF"/>
<path d="M10.4334 32.1752L9.86777 31.6072C9.41769 31.1548 9.16504 30.5426 9.16504 29.9044C9.16504 29.2663 9.41769 28.6541 9.86777 28.2016L13.2598 24.7952C13.482 24.5718 13.7462 24.3944 14.0372 24.2734C14.3282 24.1524 14.6402 24.0901 14.9554 24.0901C15.2705 24.0901 15.5826 24.1524 15.8736 24.2734C16.1646 24.3944 16.4288 24.5718 16.651 24.7952L17.2166 25.3632C17.6667 25.8157 17.9193 26.4279 17.9193 27.066C17.9193 27.7042 17.6667 28.3164 17.2166 28.7688L13.8246 32.1752C13.6024 32.3988 13.3382 32.5762 13.0472 32.6973C12.7562 32.8184 12.4442 32.8807 12.129 32.8807C11.8138 32.8807 11.5017 32.8184 11.2107 32.6973C10.9197 32.5762 10.6555 32.3988 10.4334 32.1752Z" fill="#7DFFAF"/>
<path d="M14.3901 36.1489L13.8245 35.5817C13.3746 35.129 13.1221 34.5167 13.1221 33.8785C13.1221 33.2402 13.3746 32.6279 13.8245 32.1753L17.2165 28.7689C17.4388 28.5454 17.703 28.368 17.994 28.247C18.285 28.126 18.597 28.0637 18.9121 28.0637C19.2273 28.0637 19.5393 28.126 19.8303 28.247C20.1213 28.368 20.3855 28.5454 20.6077 28.7689L21.1733 29.3369C21.6233 29.7895 21.8758 30.4018 21.8758 31.0401C21.8758 31.6783 21.6233 32.2906 21.1733 32.7433L17.7813 36.1489C17.5592 36.3724 17.295 36.5499 17.004 36.6709C16.713 36.792 16.4009 36.8543 16.0857 36.8543C15.7706 36.8543 15.4585 36.792 15.1675 36.6709C14.8765 36.5499 14.6123 36.3724 14.3901 36.1489Z" fill="#7DFFAF"/>
<path d="M18.3468 40.1223L17.7812 39.5551C17.3315 39.1024 17.0791 38.4901 17.0791 37.8519C17.0791 37.2138 17.3315 36.6015 17.7812 36.1487L21.1732 32.7431C21.3955 32.5196 21.6597 32.3421 21.9508 32.221C22.2419 32.0999 22.554 32.0376 22.8692 32.0376C23.1845 32.0376 23.4966 32.0999 23.7877 32.221C24.0788 32.3421 24.343 32.5196 24.5653 32.7431L25.13 33.3103C25.58 33.763 25.8325 34.3753 25.8325 35.0135C25.8325 35.6518 25.58 36.2641 25.13 36.7167L21.7388 40.1223C21.5166 40.3459 21.2524 40.5234 20.9613 40.6445C20.6702 40.7656 20.3581 40.8279 20.0429 40.8279C19.7276 40.8279 19.4155 40.7656 19.1244 40.6445C18.8333 40.5234 18.5691 40.3459 18.3468 40.1223Z" fill="#7DFFAF"/>
<path d="M29.0848 40.6913L25.6952 44.0953C25.4731 44.3187 25.209 44.496 24.9182 44.617C24.6273 44.738 24.3154 44.8003 24.0004 44.8003C23.6854 44.8003 23.3735 44.738 23.0826 44.617C22.7917 44.496 22.5277 44.3187 22.3056 44.0953L21.7384 43.5257C21.2892 43.0731 21.0371 42.4613 21.0371 41.8237C21.0371 41.186 21.2892 40.5742 21.7384 40.1217L25.128 36.7201C25.3509 36.4967 25.6157 36.3195 25.9072 36.1985C26.1987 36.0776 26.5112 36.0154 26.8268 36.0154C27.1424 36.0154 27.4549 36.0776 27.7464 36.1985C28.0379 36.3195 28.3027 36.4967 28.5256 36.7201L29.0856 37.2905C29.5341 37.7428 29.7857 38.354 29.7855 38.991C29.7854 39.628 29.5335 40.2392 29.0848 40.6913Z" fill="#7DFFAF"/>
<path d="M36.9999 29.3361C37.2361 29.5752 37.42 29.8608 37.5398 30.1749C37.6596 30.4889 37.7128 30.8244 37.6959 31.1601L27.3919 20.8161C27.3082 20.7444 27.2402 20.6561 27.1922 20.5569C27.1441 20.4576 27.1172 20.3495 27.1129 20.2393C27.1086 20.1291 27.1272 20.0193 27.1674 19.9166C27.2076 19.814 27.2687 19.7207 27.3466 19.6428C27.4246 19.5648 27.5178 19.5038 27.6205 19.4636C27.7231 19.4234 27.833 19.4048 27.9432 19.409C28.0534 19.4133 28.1615 19.4403 28.2607 19.4883C28.36 19.5363 28.4482 19.6043 28.5199 19.6881L38.8479 30.0401C38.5075 30.0619 38.1663 30.0103 37.8474 29.8889C37.5286 29.7674 37.2396 29.5789 36.9999 29.3361Z" fill="#7DFFAF"/>
<path d="M33.048 33.312C33.2842 33.5498 33.4686 33.8339 33.5898 34.1464C33.7109 34.4589 33.7661 34.7931 33.752 35.128L23.44 24.8C23.2904 24.6494 23.2068 24.4455 23.2075 24.2332C23.2083 24.0209 23.2933 23.8176 23.444 23.668C23.5946 23.5184 23.7985 23.4348 24.0108 23.4356C24.2231 23.4363 24.4264 23.5214 24.576 23.672L34.888 34.008C34.5494 34.0294 34.2102 33.9784 33.8929 33.8583C33.5757 33.7383 33.2876 33.5521 33.048 33.312Z" fill="#7DFFAF"/>
</svg>
