<svg width="24" height="24" viewBox="0 0 24 24" fill="none" xmlns="http://www.w3.org/2000/svg">
<mask id="mask0_1_653" style="mask-type:alpha" maskUnits="userSpaceOnUse" x="3" y="3" width="19" height="19">
<path d="M5.00269 11.5077C4.99409 11.403 5.00617 11.2976 5.03814 11.1982C5.07012 11.0987 5.1213 11.0074 5.18843 10.93C5.25557 10.8525 5.33719 10.7907 5.42813 10.7484C5.51906 10.7061 5.61732 10.6842 5.71667 10.6842H7.0855C7.27562 10.6842 7.45796 10.7641 7.59239 10.9062C7.72683 11.0483 7.80235 11.2411 7.80235 11.4421V18.6421C7.80235 18.8431 7.72683 19.0359 7.59239 19.178C7.45796 19.3201 7.27562 19.4 7.0855 19.4H6.30915C6.12973 19.4 5.95682 19.329 5.82457 19.2008C5.69231 19.0726 5.61033 18.8966 5.59481 18.7077L5.00269 11.5077ZM9.95291 11.2053C9.95291 10.8885 10.1393 10.605 10.4099 10.4701C11.001 10.1753 12.0078 9.58299 12.4619 8.78227C13.0472 7.75002 13.1576 5.88522 13.1755 5.45815C13.178 5.39827 13.1766 5.3384 13.1841 5.27928C13.2813 4.5392 14.6322 5.40358 15.1501 6.3176C15.4315 6.81326 15.4673 7.46467 15.4379 7.9736C15.406 8.51777 15.2551 9.04337 15.1071 9.56556L14.7917 10.6785H18.6831C18.7939 10.6785 18.9031 10.7056 19.0023 10.7578C19.1015 10.8099 19.1879 10.8856 19.2547 10.979C19.3216 11.0724 19.367 11.1808 19.3876 11.2959C19.4081 11.411 19.4031 11.5295 19.3731 11.6422L17.4483 18.8483C17.4058 19.0072 17.3154 19.1471 17.1908 19.2467C17.0662 19.3463 16.9142 19.4001 16.758 19.4H10.6698C10.4796 19.4 10.2973 19.3201 10.1629 19.178C10.0284 19.0359 9.95291 18.8431 9.95291 18.6421V11.2053Z" fill="white" stroke="white" stroke-width="4" stroke-linecap="round" stroke-linejoin="round"/>
</mask>
<g mask="url(#mask0_1_653)">
<path d="M3.5 3.10522H20.7045V21.2947H3.5V3.10522Z" fill="white"/>
</g>
</svg>
