<svg width="48" height="48" viewBox="0 0 48 48" fill="none" xmlns="http://www.w3.org/2000/svg">
<path opacity="0.4" d="M34 5.5C29.983 5.5 26.2596 6.28908 23.3652 7.64092C20.9296 8.77854 17.6513 9.5 14 9.5C11.976 9.5 10.0598 9.27814 8.3349 8.88306C5.682 8.27544 2.5 10.0936 2.5 13.2279V34.772C2.5 36.4432 2.76484 38.0164 3.63288 39.2976C4.53048 40.6222 5.91378 41.4062 7.6651 41.8074C9.61898 42.2548 11.7603 42.5 14 42.5C18.017 42.5 21.7404 41.711 24.6348 40.359C27.0704 39.2214 30.3488 38.5 34 38.5C36.024 38.5 37.9402 38.7218 39.6652 39.117C42.318 39.7246 45.5 37.9064 45.5 34.772V13.2279C45.5 11.6342 45.2856 10.0691 44.4436 8.7749C43.565 7.42434 42.169 6.61274 40.3348 6.19266C38.381 5.74514 36.2396 5.5 34 5.5Z" fill="#7DFFAF"/>
<path fill-rule="evenodd" clip-rule="evenodd" d="M30 24C30 27.3138 27.3138 30 24 30C20.6862 30 18 27.3138 18 24C18 20.6862 20.6862 18 24 18C27.3138 18 30 20.6862 30 24ZM12.1048 24.4342C12.9313 24.492 13.5543 25.2088 13.4965 26.0352C13.4387 26.8616 12.722 27.4848 11.8955 27.427C11.1771 27.3766 10.4725 27.301 9.78522 27.2014C8.96534 27.0828 8.39696 26.3218 8.51568 25.502C8.6344 24.6822 9.3953 24.1138 10.2152 24.2324C10.8283 24.3212 11.4592 24.3892 12.1048 24.4342ZM38.2152 20.7984C39.035 20.9172 39.6034 21.678 39.4848 22.498C39.366 23.3178 38.605 23.8862 37.7852 23.7676C37.172 23.6788 36.5412 23.6108 35.8956 23.5658C35.0692 23.508 34.446 22.7912 34.5038 21.9648C34.5616 21.1384 35.2784 20.5152 36.1048 20.573C36.8234 20.6232 37.5278 20.699 38.2152 20.7984Z" fill="#7DFFAF"/>
</svg>
