<svg width="36" height="29" viewBox="0 0 36 29" fill="none" xmlns="http://www.w3.org/2000/svg">
<path d="M34.3044 15.1303L34.3044 15.1303L34.3055 15.1271C35.099 12.6651 35.5 10.3236 35.5 8.10527L35.5 2C35.5 1.17158 34.8284 0.500004 34 0.500004L26.9596 0.500003C26.1312 0.500003 25.4596 1.17158 25.4596 2L25.4596 8.26316C25.4596 11.1106 24.8571 13.7724 23.6536 16.2547C22.538 18.5298 21.253 20.7225 19.7986 22.8328C19.3502 23.4833 19.4697 24.3793 20.0971 24.8778L23.9012 27.9008C24.4414 28.3302 25.2186 28.3423 25.7631 27.889C27.6915 26.2834 29.362 24.4258 30.7742 22.3177L30.7749 22.3166C32.3052 20.0181 33.4825 17.6226 34.3044 15.1303ZM15.6408 15.1303L15.6418 15.1271C16.4353 12.6651 16.8363 10.3236 16.8363 8.10527L16.8363 2C16.8363 1.17158 16.1648 0.500002 15.3363 0.500002L8.29597 0.500001C7.46754 0.500001 6.79597 1.17157 6.79597 2L6.79597 8.26316C6.79597 11.1106 6.19341 13.7723 4.99 16.2546C3.87433 18.5298 2.58936 20.7225 1.13487 22.8328C0.686547 23.4833 0.806042 24.3793 1.43339 24.8778L5.23749 27.9008C5.77774 28.3302 6.55492 28.3423 7.09943 27.889C9.02778 26.2834 10.6983 24.4258 12.1105 22.3177L12.1113 22.3166C13.6415 20.0181 14.8188 17.6226 15.6408 15.1303Z" fill="#6999F8" stroke="url(#paint0_linear_1_663)"/>
<defs>
<linearGradient id="paint0_linear_1_663" x1="18" y1="20.5" x2="18" y2="1" gradientUnits="userSpaceOnUse">
<stop stop-color="white" stop-opacity="0"/>
<stop offset="1" stop-color="white" stop-opacity="0.4"/>
</linearGradient>
</defs>
</svg>
