<svg width="91" height="18" viewBox="0 0 91 18" fill="none" xmlns="http://www.w3.org/2000/svg">
<path d="M5.03574 16.5L6.25449 11.2313L2.16699 7.6875L7.56699 7.21875L9.66699 2.25L11.767 7.21875L17.167 7.6875L13.0795 11.2313L14.2982 16.5L9.66699 13.7062L5.03574 16.5Z" fill="#FCE570"/>
<path d="M23.0357 16.5L24.2545 11.2313L20.167 7.6875L25.567 7.21875L27.667 2.25L29.767 7.21875L35.167 7.6875L31.0795 11.2313L32.2982 16.5L27.667 13.7062L23.0357 16.5Z" fill="#FCE570"/>
<path d="M41.0357 16.5L42.2545 11.2313L38.167 7.6875L43.567 7.21875L45.667 2.25L47.767 7.21875L53.167 7.6875L49.0795 11.2313L50.2982 16.5L45.667 13.7062L41.0357 16.5Z" fill="#FCE570"/>
<path d="M59.0357 16.5L60.2545 11.2313L56.167 7.6875L61.567 7.21875L63.667 2.25L65.767 7.21875L71.167 7.6875L67.0795 11.2313L68.2982 16.5L63.667 13.7062L59.0357 16.5Z" fill="#FCE570"/>
<path d="M77.0357 16.5L78.2545 11.2313L74.167 7.6875L79.567 7.21875L81.667 2.25L83.767 7.21875L89.167 7.6875L85.0795 11.2313L86.2982 16.5L81.667 13.7062L77.0357 16.5Z" fill="#667085"/>
</svg>
