<svg width="91" height="18" viewBox="0 0 91 18" fill="none" xmlns="http://www.w3.org/2000/svg">
<path d="M4.702 16.5L5.92075 11.2313L1.83325 7.6875L7.23325 7.21875L9.33325 2.25L11.4333 7.21875L16.8333 7.6875L12.7458 11.2313L13.9645 16.5L9.33325 13.7062L4.702 16.5Z" fill="#FCE570"/>
<path d="M22.702 16.5L23.9208 11.2313L19.8333 7.6875L25.2333 7.21875L27.3333 2.25L29.4333 7.21875L34.8333 7.6875L30.7458 11.2313L31.9645 16.5L27.3333 13.7062L22.702 16.5Z" fill="#FCE570"/>
<path d="M40.702 16.5L41.9208 11.2313L37.8333 7.6875L43.2333 7.21875L45.3333 2.25L47.4333 7.21875L52.8333 7.6875L48.7458 11.2313L49.9645 16.5L45.3333 13.7062L40.702 16.5Z" fill="#FCE570"/>
<path d="M58.702 16.5L59.9208 11.2313L55.8333 7.6875L61.2333 7.21875L63.3333 2.25L65.4333 7.21875L70.8333 7.6875L66.7458 11.2313L67.9645 16.5L63.3333 13.7062L58.702 16.5Z" fill="#FCE570"/>
<path d="M76.702 16.5L77.9208 11.2313L73.8333 7.6875L79.2333 7.21875L81.3333 2.25L83.4333 7.21875L88.8333 7.6875L84.7458 11.2313L85.9645 16.5L81.3333 13.7062L76.702 16.5Z" fill="#FCE570"/>
</svg>
