<svg width="20" height="16" viewBox="0 0 20 16" fill="none" xmlns="http://www.w3.org/2000/svg">
<path d="M18.4976 8.40222L18.4976 8.40223L18.4987 8.39899C18.9164 7.10269 19.1296 5.86353 19.1296 4.68421L19.1296 2C19.1296 1.17157 18.4581 0.500001 17.6296 0.500001L14.942 0.500001C14.1136 0.500001 13.442 1.17157 13.442 2L13.442 4.76608C13.442 6.20705 13.1375 7.55096 12.53 8.8042C12.0221 9.8399 11.4459 10.8424 10.8012 11.8119C10.3684 12.4627 10.482 13.3547 11.1109 13.8544L12.4277 14.9008C12.965 15.3279 13.7513 15.3491 14.2933 14.8711C15.1858 14.0839 15.9676 13.1891 16.6385 12.1876L16.6393 12.1864C17.444 10.9777 18.0643 9.71612 18.4976 8.40222ZM8.82015 8.40223L8.8212 8.39899C9.23897 7.10269 9.45218 5.86353 9.45218 4.68421L9.45218 2C9.45218 1.17157 8.78061 0.5 7.95218 0.5L5.26459 0.5C4.43616 0.5 3.76459 1.17157 3.76459 2L3.76459 4.76608C3.76459 6.20703 3.46002 7.55093 2.85258 8.80416C2.34467 9.83987 1.76844 10.8424 1.12375 11.8119L1.5401 12.0887L1.12375 11.8119C0.690956 12.4627 0.804533 13.3547 1.4334 13.8544L2.75021 14.9008C3.28757 15.3279 4.07385 15.3491 4.6158 14.8711C5.50833 14.0839 6.29019 13.1891 6.96101 12.1876L6.9618 12.1864C7.76656 10.9777 8.3868 9.71612 8.82015 8.40223Z" fill="#6999F8" stroke="url(#paint0_linear_1_691)"/>
<defs>
<linearGradient id="paint0_linear_1_691" x1="9.81482" y1="11.1111" x2="9.81483" y2="0.999999" gradientUnits="userSpaceOnUse">
<stop stop-color="white" stop-opacity="0"/>
<stop offset="1" stop-color="white" stop-opacity="0.4"/>
</linearGradient>
</defs>
</svg>
