<svg width="48" height="48" viewBox="0 0 48 48" fill="none" xmlns="http://www.w3.org/2000/svg">
<path opacity="0.4" d="M24 8.5C18.8589 8.5 14.4519 10.7628 11.0406 13.426C7.62626 16.0915 5.10252 19.2395 3.69082 21.219L3.58438 21.3674C3.07808 22.0716 2.5 22.8756 2.5 24C2.5 25.1244 3.07808 25.9284 3.58438 26.6326L3.69082 26.781C5.10252 28.7606 7.62626 31.9084 11.0406 34.574C14.4519 37.2372 18.8589 39.5 24 39.5C29.1412 39.5 33.548 37.2372 36.9594 34.574C40.3738 31.9084 42.8974 28.7606 44.3092 26.781L44.4156 26.6326C44.922 25.9284 45.5 25.1244 45.5 24C45.5 22.8756 44.922 22.0716 44.4156 21.3674L44.3092 21.219C42.8974 19.2395 40.3738 16.0915 36.9594 13.426C33.548 10.7628 29.1412 8.5 24 8.5Z" fill="#7DFFAF"/>
<path fill-rule="evenodd" clip-rule="evenodd" d="M24 31C20.134 31 17 27.866 17 24C17 20.134 20.134 17 24 17C27.866 17 31 20.134 31 24C31 27.866 27.866 31 24 31Z" fill="#7DFFAF"/>
</svg>
